<svg width="100" height="100" viewBox="0 0 100 100" fill="none" xmlns="http://www.w3.org/2000/svg">
<rect width="100" height="100" rx="50" fill="url(#paint0_linear_3_32)"/>
<g filter="url(#filter0_d_3_32)">
<line x1="49.9995" y1="6.5" x2="49.9995" y2="87.7829" stroke="black" stroke-width="5" stroke-linecap="round"/>
<line x1="2.5" y1="-2.5" x2="28.0004" y2="-2.5" transform="matrix(0.737712 0.675116 -0.737712 0.675116 47 12)" stroke="black" stroke-width="5" stroke-linecap="round"/>
<line x1="2.5" y1="-2.5" x2="28.0004" y2="-2.5" transform="matrix(0.737712 0.675116 -0.737712 0.675116 47.4995 29.8849)" stroke="black" stroke-width="5" stroke-linecap="round"/>
<line x1="2.5" y1="-2.5" x2="40.6341" y2="-2.5" transform="matrix(0.737712 -0.675116 0.737712 0.675116 35.7141 87.5866)" stroke="black" stroke-width="5" stroke-linecap="round"/>
<path d="M35.5 83.9268V57.9268" stroke="black" stroke-width="5" stroke-linecap="round"/>
<path d="M64.3034 85.4241V59" stroke="black" stroke-width="5" stroke-linecap="round"/>
<path d="M59 81.11L69 81" stroke="black" stroke-width="5" stroke-linecap="round"/>
<path d="M31 62H40" stroke="black" stroke-width="5" stroke-linecap="round"/>
</g>
<defs>
<filter id="filter0_d_3_32" x="19" y="4" width="53.6082" height="95.783" filterUnits="userSpaceOnUse" color-interpolation-filters="sRGB">
<feFlood flood-opacity="0" result="BackgroundImageFix"/>
<feColorMatrix in="SourceAlpha" type="matrix" values="0 0 0 0 0 0 0 0 0 0 0 0 0 0 0 0 0 0 127 0" result="hardAlpha"/>
<feOffset dx="-6" dy="6"/>
<feGaussianBlur stdDeviation="1.75"/>
<feComposite in2="hardAlpha" operator="out"/>
<feColorMatrix type="matrix" values="0 0 0 0 0.241346 0 0 0 0 0 0 0 0 0 0 0 0 0 0.4 0"/>
<feBlend mode="normal" in2="BackgroundImageFix" result="effect1_dropShadow_3_32"/>
<feBlend mode="normal" in="SourceGraphic" in2="effect1_dropShadow_3_32" result="shape"/>
</filter>
<linearGradient id="paint0_linear_3_32" x1="50" y1="0" x2="50" y2="100" gradientUnits="userSpaceOnUse">
<stop offset="0.115385" stop-color="white" stop-opacity="0.88"/>
<stop offset="0.461538" stop-color="#D99276" stop-opacity="0.76"/>
<stop offset="1" stop-color="#A32E00" stop-opacity="0.91"/>
</linearGradient>
</defs>
</svg>
